<svg width="12" height="12" viewBox="0 0 12 12" fill="none" xmlns="http://www.w3.org/2000/svg">
<g clip-path="url(#clip0_3_669)">
<path d="M10.5869 3.40598C10.8513 3.1417 10.9998 2.78322 10.9999 2.40941C10.9999 2.03561 10.8515 1.67709 10.5872 1.41274C10.3229 1.14839 9.96441 0.999849 9.59061 0.999802C9.2168 0.999755 8.85829 1.1482 8.59394 1.41249L1.92096 8.08696C1.80487 8.20271 1.71902 8.34523 1.67096 8.50196L1.01047 10.678C0.997545 10.7212 0.996569 10.7671 1.00764 10.8109C1.01872 10.8546 1.04143 10.8946 1.07337 10.9265C1.1053 10.9583 1.14528 10.981 1.18905 10.992C1.23281 11.003 1.27875 11.0019 1.32197 10.989L3.49846 10.329C3.65504 10.2813 3.79754 10.196 3.91346 10.0805L10.5869 3.40598Z" stroke="#0F172B" stroke-width="0.999996" stroke-linecap="round" stroke-linejoin="round"/>
</g>
<defs>
<clipPath id="clip0_3_669">
<rect width="12" height="12" fill="white"/>
</clipPath>
</defs>
</svg>
