<svg width="20" height="20" viewBox="0 0 20 20" fill="none" xmlns="http://www.w3.org/2000/svg">
<path d="M16.66 8.32998C16.66 12.4891 12.046 16.8207 10.4967 18.1585C10.3523 18.2671 10.1766 18.3258 9.99603 18.3258C9.81543 18.3258 9.63973 18.2671 9.49539 18.1585C7.94602 16.8207 3.33203 12.4891 3.33203 8.32998C3.33203 6.56258 4.03413 4.86757 5.28387 3.61782C6.53361 2.36808 8.22863 1.66599 9.99603 1.66599C11.7634 1.66599 13.4584 2.36808 14.7082 3.61782C15.9579 4.86757 16.66 6.56258 16.66 8.32998Z" stroke="#155DFC" stroke-width="1.666" stroke-linecap="round" stroke-linejoin="round"/>
<path d="M9.99607 10.829C11.3762 10.829 12.4951 9.71015 12.4951 8.32999C12.4951 6.94983 11.3762 5.83099 9.99607 5.83099C8.61591 5.83099 7.49707 6.94983 7.49707 8.32999C7.49707 9.71015 8.61591 10.829 9.99607 10.829Z" stroke="#155DFC" stroke-width="1.666" stroke-linecap="round" stroke-linejoin="round"/>
</svg>
