<svg width="12" height="12" viewBox="0 0 12 12" fill="none" xmlns="http://www.w3.org/2000/svg">
<g clip-path="url(#clip0_3_663)">
<path d="M10.9999 8.45997V9.95997C11.0005 10.0992 10.972 10.2371 10.9162 10.3646C10.8604 10.4922 10.7786 10.6068 10.676 10.7009C10.5734 10.795 10.4522 10.8667 10.3203 10.9113C10.1884 10.9559 10.0486 10.9725 9.90993 10.96C8.37135 10.7928 6.89344 10.267 5.59495 9.42497C4.38687 8.6573 3.36263 7.63306 2.59496 6.42498C1.74995 5.12059 1.22409 3.63549 1.05997 2.09C1.04747 1.95173 1.0639 1.81238 1.10822 1.68081C1.15253 1.54924 1.22375 1.42835 1.31735 1.32581C1.41095 1.22328 1.52487 1.14136 1.65186 1.08526C1.77885 1.02917 1.91613 1.00013 2.05496 1H3.55496C3.79761 0.997614 4.03285 1.08354 4.21683 1.24177C4.40082 1.39999 4.52099 1.61972 4.55495 1.86C4.61826 2.34003 4.73568 2.81136 4.90495 3.26499C4.97222 3.44395 4.98678 3.63845 4.9469 3.82543C4.90703 4.01241 4.81438 4.18405 4.67995 4.31999L4.04495 4.95499C4.75673 6.20675 5.79317 7.2432 7.04494 7.95498L7.67994 7.31998C7.81588 7.18555 7.98752 7.0929 8.1745 7.05303C8.36148 7.01315 8.55597 7.02771 8.73494 7.09498C9.18857 7.26425 9.6599 7.38167 10.1399 7.44498C10.3828 7.47924 10.6046 7.60158 10.7632 7.78872C10.9218 7.97587 11.006 8.21476 10.9999 8.45997Z" stroke="#6A7282" stroke-width="0.999996" stroke-linecap="round" stroke-linejoin="round"/>
</g>
<defs>
<clipPath id="clip0_3_663">
<rect width="12" height="12" fill="white"/>
</clipPath>
</defs>
</svg>
