<svg width="20" height="20" viewBox="0 0 20 20" fill="none" xmlns="http://www.w3.org/2000/svg">
<path d="M9.16299 18.1011C9.41625 18.2473 9.70354 18.3243 9.99599 18.3243C10.2884 18.3243 10.5757 18.2473 10.829 18.1011L16.66 14.7691C16.913 14.623 17.1231 14.4129 17.2694 14.16C17.4156 13.9071 17.4927 13.6201 17.493 13.328V6.66398C17.4927 6.37183 17.4156 6.08489 17.2694 5.83195C17.1231 5.57901 16.913 5.36897 16.66 5.22289L10.829 1.8909C10.5757 1.74467 10.2884 1.66769 9.99599 1.66769C9.70354 1.66769 9.41625 1.74467 9.16299 1.8909L3.33199 5.22289C3.07898 5.36897 2.86883 5.57901 2.72262 5.83195C2.57641 6.08489 2.49929 6.37183 2.49899 6.66398V13.328C2.49929 13.6201 2.57641 13.9071 2.72262 14.16C2.86883 14.4129 3.07898 14.623 3.33199 14.7691L9.16299 18.1011Z" stroke="white" stroke-width="1.666" stroke-linecap="round" stroke-linejoin="round"/>
<path d="M9.99599 18.326V9.996" stroke="white" stroke-width="1.666" stroke-linecap="round" stroke-linejoin="round"/>
<path d="M2.74057 5.83099L9.996 9.99599L17.2514 5.83099" stroke="white" stroke-width="1.666" stroke-linecap="round" stroke-linejoin="round"/>
<path d="M6.2475 3.55688L13.7445 7.84683" stroke="white" stroke-width="1.666" stroke-linecap="round" stroke-linejoin="round"/>
</svg>
