<svg width="20" height="20" viewBox="0 0 20 20" fill="none" xmlns="http://www.w3.org/2000/svg">
<path d="M7.49698 14.161H5.83098C4.72636 14.161 3.66697 13.7222 2.88588 12.9411C2.1048 12.16 1.66599 11.1006 1.66599 9.99599C1.66599 8.89137 2.1048 7.83198 2.88588 7.05089C3.66697 6.2698 4.72636 5.83099 5.83098 5.83099H7.49698" stroke="#99A1AF" stroke-width="1.666" stroke-linecap="round" stroke-linejoin="round"/>
<path d="M12.495 5.83099H14.161C15.2656 5.83099 16.325 6.2698 17.1061 7.05089C17.8872 7.83198 18.326 8.89137 18.326 9.99599C18.326 11.1006 17.8872 12.16 17.1061 12.9411C16.325 13.7222 15.2656 14.161 14.161 14.161H12.495" stroke="#99A1AF" stroke-width="1.666" stroke-linecap="round" stroke-linejoin="round"/>
<path d="M6.664 9.996H13.328" stroke="#99A1AF" stroke-width="1.666" stroke-linecap="round" stroke-linejoin="round"/>
</svg>
