<svg width="20" height="20" viewBox="0 0 20 20" fill="none" xmlns="http://www.w3.org/2000/svg">
<path d="M8.55322 17.4929C8.69945 17.7462 8.90976 17.9565 9.16302 18.1027C9.41627 18.2489 9.70355 18.3258 9.99598 18.3258C10.2884 18.3258 10.5757 18.2489 10.8289 18.1027C11.0822 17.9565 11.2925 17.7462 11.4387 17.4929" stroke="#7F22FE" stroke-width="1.666" stroke-linecap="round" stroke-linejoin="round"/>
<path d="M2.71727 12.7666C2.60845 12.8858 2.53664 13.0342 2.51057 13.1935C2.4845 13.3528 2.50529 13.5163 2.57042 13.664C2.63555 13.8118 2.74221 13.9374 2.87742 14.0256C3.01263 14.1139 3.17057 14.1609 3.33202 14.161H16.66C16.8215 14.1611 16.9794 14.1142 17.1147 14.0262C17.25 13.9381 17.3568 13.8126 17.4221 13.665C17.4874 13.5173 17.5084 13.3539 17.4826 13.1946C17.4567 13.0352 17.3851 12.8868 17.2764 12.7674C16.1685 11.6254 14.994 10.4117 14.994 6.66401C14.994 5.33846 14.4674 4.0672 13.5301 3.1299C12.5928 2.19259 11.3216 1.66602 9.99602 1.66602C8.67047 1.66602 7.39921 2.19259 6.4619 3.1299C5.5246 4.0672 4.99802 5.33846 4.99802 6.66401C4.99802 10.4117 3.82266 11.6254 2.71727 12.7666Z" stroke="#7F22FE" stroke-width="1.666" stroke-linecap="round" stroke-linejoin="round"/>
</svg>
