<svg width="20" height="20" viewBox="0 0 20 20" fill="none" xmlns="http://www.w3.org/2000/svg">
<g clip-path="url(#clip0_28_631)">
<path d="M14.994 6.66401C16.3742 6.66401 17.493 5.54517 17.493 4.16501C17.493 2.78486 16.3742 1.66602 14.994 1.66602C13.6138 1.66602 12.495 2.78486 12.495 4.16501C12.495 5.54517 13.6138 6.66401 14.994 6.66401Z" stroke="white" stroke-width="1.666" stroke-linecap="round" stroke-linejoin="round"/>
<path d="M4.99802 12.4951C6.37818 12.4951 7.49702 11.3762 7.49702 9.99607C7.49702 8.61591 6.37818 7.49707 4.99802 7.49707C3.61786 7.49707 2.49902 8.61591 2.49902 9.99607C2.49902 11.3762 3.61786 12.4951 4.99802 12.4951Z" stroke="white" stroke-width="1.666" stroke-linecap="round" stroke-linejoin="round"/>
<path d="M14.994 18.3259C16.3742 18.3259 17.493 17.207 17.493 15.8269C17.493 14.4467 16.3742 13.3279 14.994 13.3279C13.6138 13.3279 12.495 14.4467 12.495 15.8269C12.495 17.207 13.6138 18.3259 14.994 18.3259Z" stroke="white" stroke-width="1.666" stroke-linecap="round" stroke-linejoin="round"/>
<path d="M7.15546 11.2539L12.8448 14.5692" stroke="white" stroke-width="1.666" stroke-linecap="round" stroke-linejoin="round"/>
<path d="M12.8365 5.42285L7.15546 8.73819" stroke="white" stroke-width="1.666" stroke-linecap="round" stroke-linejoin="round"/>
</g>
<defs>
<clipPath id="clip0_28_631">
<rect width="19.992" height="19.992" fill="white"/>
</clipPath>
</defs>
</svg>
