<svg width="16" height="16" viewBox="0 0 16 16" fill="none" xmlns="http://www.w3.org/2000/svg">
<path d="M13.8933 3.07333C13.5528 2.73267 13.1485 2.46243 12.7036 2.27899C12.2586 2.09555 11.7817 2.00226 11.3 2.00226C10.8183 2.00226 10.3414 2.09555 9.89643 2.27899C9.45146 2.46243 9.04717 2.73267 8.70666 3.07333L7.99999 3.78L7.29333 3.07333C6.60548 2.38548 5.67269 1.99829 4.69999 1.99829C3.7273 1.99829 2.79451 2.38548 2.10666 3.07333C1.41881 3.76118 1.03162 4.69397 1.03162 5.66666C1.03162 6.63936 1.41881 7.57215 2.10666 8.26L2.81333 8.96666L7.99999 14.1533L13.1867 8.96666L13.8933 8.26C14.234 7.91949 14.5042 7.5152 14.6877 7.07023C14.8711 6.62526 14.9644 6.14837 14.9644 5.66666C14.9644 5.18496 14.8711 4.70807 14.6877 4.2631C14.5042 3.81813 14.234 3.41384 13.8933 3.07333Z" stroke="currentColor" stroke-width="1.5" stroke-linecap="round" stroke-linejoin="round"/>
</svg>

