<svg width="12" height="12" viewBox="0 0 12 12" fill="none" xmlns="http://www.w3.org/2000/svg">
<g clip-path="url(#clip0_682_2816)">
<path d="M9.99221 4.99611C9.99221 7.49063 7.2249 10.0886 6.29563 10.891C6.20907 10.956 6.10368 10.9912 5.99538 10.9912C5.88707 10.9912 5.78168 10.956 5.69512 10.891C4.76585 10.0886 1.99854 7.49063 1.99854 4.99611C1.99854 3.93608 2.41963 2.91947 3.16918 2.16991C3.91873 1.42036 4.93534 0.999268 5.99538 0.999268C7.05541 0.999268 8.07202 1.42036 8.82157 2.16991C9.57112 2.91947 9.99221 3.93608 9.99221 4.99611Z" stroke="white" stroke-opacity="0.9" stroke-width="0.999214" stroke-linecap="round" stroke-linejoin="round"/>
<path d="M5.99516 6.49494C6.82293 6.49494 7.49397 5.82389 7.49397 4.99612C7.49397 4.16836 6.82293 3.49731 5.99516 3.49731C5.16738 3.49731 4.49634 4.16836 4.49634 4.99612C4.49634 5.82389 5.16738 6.49494 5.99516 6.49494Z" stroke="white" stroke-opacity="0.9" stroke-width="0.999214" stroke-linecap="round" stroke-linejoin="round"/>
</g>
<defs>
<clipPath id="clip0_682_2816">
<rect width="11.9906" height="11.9906" fill="white"/>
</clipPath>
</defs>
</svg>
