<svg width="20" height="20" viewBox="0 0 20 20" fill="none" xmlns="http://www.w3.org/2000/svg">
<g clip-path="url(#clip0_11_193)">
<path d="M8.55322 17.4929C8.69945 17.7462 8.90976 17.9565 9.16302 18.1027C9.41627 18.2489 9.70355 18.3258 9.99598 18.3258C10.2884 18.3258 10.5757 18.2489 10.8289 18.1027C11.0822 17.9565 11.2925 17.7462 11.4387 17.4929" stroke="white" stroke-width="1.666" stroke-linecap="round" stroke-linejoin="round"/>
<path d="M2.71715 12.7666C2.60833 12.8858 2.53652 13.0342 2.51044 13.1935C2.48437 13.3528 2.50517 13.5163 2.5703 13.664C2.63543 13.8118 2.74208 13.9374 2.8773 14.0256C3.01251 14.1139 3.17045 14.1609 3.3319 14.161H16.6599C16.8213 14.1611 16.9793 14.1142 17.1146 14.0262C17.2499 13.9381 17.3567 13.8126 17.422 13.665C17.4873 13.5173 17.5083 13.3539 17.4824 13.1946C17.4566 13.0352 17.385 12.8868 17.2763 12.7674C16.1684 11.6254 14.9939 10.4117 14.9939 6.66401C14.9939 5.33846 14.4673 4.0672 13.53 3.1299C12.5927 2.19259 11.3215 1.66602 9.9959 1.66602C8.67035 1.66602 7.39909 2.19259 6.46178 3.1299C5.52448 4.0672 4.9979 5.33846 4.9979 6.66401C4.9979 10.4117 3.82254 11.6254 2.71715 12.7666Z" stroke="white" stroke-width="1.666" stroke-linecap="round" stroke-linejoin="round"/>
</g>
<defs>
<clipPath id="clip0_11_193">
<rect width="19.992" height="19.992" fill="white"/>
</clipPath>
</defs>
</svg>
