<svg width="12" height="12" viewBox="0 0 12 12" fill="none" xmlns="http://www.w3.org/2000/svg">
<g clip-path="url(#clip0_39_1878)">
<path d="M5.7624 1.14745C5.78432 1.10318 5.81816 1.06591 5.86013 1.03986C5.90209 1.01381 5.95051 1 5.9999 1C6.0493 1 6.09771 1.01381 6.13968 1.03986C6.18164 1.06591 6.21549 1.10318 6.2374 1.14745L7.3924 3.48694C7.46849 3.64092 7.5808 3.77414 7.71971 3.87516C7.85861 3.97618 8.01996 4.04199 8.18989 4.06693L10.7729 4.44493C10.8218 4.45202 10.8678 4.47267 10.9056 4.50453C10.9434 4.5364 10.9716 4.57821 10.9869 4.62524C11.0022 4.67226 11.004 4.72263 10.9922 4.77065C10.9803 4.81866 10.9553 4.86241 10.9199 4.89693L9.05189 6.71592C8.9287 6.83597 8.83653 6.98416 8.78331 7.14774C8.73009 7.31131 8.71742 7.48536 8.74639 7.65492L9.18739 10.2249C9.19603 10.2738 9.19075 10.3242 9.17214 10.3703C9.15353 10.4163 9.12235 10.4562 9.08216 10.4854C9.04197 10.5146 8.99438 10.5319 8.94482 10.5354C8.89527 10.5388 8.84574 10.5283 8.80189 10.5049L6.4929 9.29091C6.34076 9.21103 6.17149 9.16929 5.99965 9.16929C5.82781 9.16929 5.65855 9.21103 5.5064 9.29091L3.19791 10.5049C3.15408 10.5281 3.10461 10.5386 3.05514 10.535C3.00567 10.5315 2.95817 10.5142 2.91806 10.485C2.87795 10.4558 2.84683 10.416 2.82824 10.37C2.80966 10.324 2.80434 10.2738 2.81292 10.2249L3.25341 7.65542C3.28251 7.48579 3.26991 7.31162 3.21668 7.14794C3.16346 6.98427 3.07122 6.836 2.94792 6.71592L1.07992 4.89743C1.04422 4.86295 1.01892 4.81913 1.0069 4.77097C0.994889 4.72281 0.996642 4.67224 1.01196 4.62503C1.02728 4.57781 1.05556 4.53585 1.09356 4.50392C1.13157 4.472 1.17777 4.45138 1.22692 4.44443L3.80941 4.06693C3.97954 4.04218 4.1411 3.97646 4.2802 3.87543C4.4193 3.77439 4.53176 3.64107 4.60791 3.48694L5.7624 1.14745Z" fill="#FF6900" stroke="#FF6900" stroke-width="0.999996" stroke-linecap="round" stroke-linejoin="round"/>
</g>
<defs>
<clipPath id="clip0_39_1878">
<rect width="12" height="12" fill="white"/>
</clipPath>
</defs>
</svg>
