<svg width="12" height="12" viewBox="0 0 12 12" fill="none" xmlns="http://www.w3.org/2000/svg">
<path d="M1 6H8V9.5H1V6Z" stroke="currentColor" stroke-width="1" stroke-linecap="round" stroke-linejoin="round"/>
<path d="M8 6H10.5L11.5 7V9.5H8V6Z" stroke="currentColor" stroke-width="1" stroke-linecap="round" stroke-linejoin="round"/>
<path d="M2.5 9.5C3.05228 9.5 3.5 9.05228 3.5 8.5C3.5 7.94772 3.05228 7.5 2.5 7.5C1.94772 7.5 1.5 7.94772 1.5 8.5C1.5 9.05228 1.94772 9.5 2.5 9.5Z" stroke="currentColor" stroke-width="1" stroke-linecap="round" stroke-linejoin="round"/>
<path d="M9.5 9.5C10.0523 9.5 10.5 9.05228 10.5 8.5C10.5 7.94772 10.0523 7.5 9.5 7.5C8.94772 7.5 8.5 7.94772 8.5 8.5C8.5 9.05228 8.94772 9.5 9.5 9.5Z" stroke="currentColor" stroke-width="1" stroke-linecap="round" stroke-linejoin="round"/>
</svg>

