<svg width="12" height="12" viewBox="0 0 12 12" fill="none" xmlns="http://www.w3.org/2000/svg">
<path d="M4.24999 7.24998C4.5815 7.24998 4.89945 7.11828 5.13387 6.88386C5.36828 6.64944 5.49998 6.3315 5.49998 5.99998C5.49998 5.30998 5.24998 4.99999 4.99998 4.49999C4.46398 3.42849 4.88798 2.473 5.99998 1.5C6.24998 2.75 6.99997 3.94999 7.99997 4.74999C8.99997 5.54998 9.49996 6.49998 9.49996 7.49998C9.49996 7.9596 9.40943 8.41472 9.23354 8.83936C9.05765 9.264 8.79985 9.64984 8.47484 9.97484C8.14984 10.2998 7.764 10.5577 7.33936 10.7335C6.91473 10.9094 6.4596 11 5.99998 11C5.54035 11 5.08523 10.9094 4.66059 10.7335C4.23595 10.5577 3.85012 10.2998 3.52511 9.97484C3.20011 9.64984 2.9423 9.264 2.76641 8.83936C2.59052 8.41472 2.49999 7.9596 2.49999 7.49998C2.49999 6.92348 2.71649 6.35298 2.99999 5.99998C2.99999 6.3315 3.13169 6.64944 3.36611 6.88386C3.60052 7.11828 3.91847 7.24998 4.24999 7.24998Z" stroke="#FB2C36" stroke-width="0.999996" stroke-linecap="round" stroke-linejoin="round"/>
</svg>
