<svg width="20" height="20" viewBox="0 0 20 20" fill="none" xmlns="http://www.w3.org/2000/svg">
<path d="M7.08048 12.0785C7.63279 12.0785 8.16248 11.8591 8.55303 11.4686C8.94357 11.078 9.16298 10.5483 9.16298 9.99602C9.16298 8.84648 8.74648 8.33002 8.32998 7.49702C7.437 5.7119 8.14338 4.12004 9.99598 2.49902C10.4125 4.58152 11.662 6.58072 13.328 7.91352C14.994 9.24632 15.827 10.829 15.827 12.495C15.827 13.2608 15.6761 14.019 15.3831 14.7264C15.0901 15.4339 14.6606 16.0767 14.1191 16.6182C13.5777 17.1596 12.9349 17.5891 12.2274 17.8822C11.52 18.1752 10.7617 18.326 9.99598 18.326C9.23024 18.326 8.472 18.1752 7.76455 17.8822C7.0571 17.5891 6.4143 17.1596 5.87284 16.6182C5.33138 16.0767 4.90187 15.4339 4.60884 14.7264C4.3158 14.019 4.16498 13.2608 4.16498 12.495C4.16498 11.5346 4.52567 10.5841 4.99798 9.99602C4.99798 10.5483 5.21738 11.078 5.60793 11.4686C5.99847 11.8591 6.52816 12.0785 7.08048 12.0785Z" fill="#7F22FE" stroke="#7F22FE" stroke-width="1.666" stroke-linecap="round" stroke-linejoin="round"/>
</svg>
