<svg width="15" height="15" viewBox="0 0 15 15" fill="none" xmlns="http://www.w3.org/2000/svg">
<path d="M7.0161 0.86305C7.04531 0.804039 7.09043 0.754366 7.14637 0.719636C7.20231 0.684907 7.26685 0.666504 7.33269 0.666504C7.39854 0.666504 7.46307 0.684907 7.51901 0.719636C7.57495 0.754366 7.62007 0.804039 7.64928 0.86305L9.18889 3.9816C9.29032 4.18686 9.44004 4.36444 9.6252 4.4991C9.81036 4.63377 10.0254 4.72149 10.252 4.75474L13.6951 5.25861C13.7603 5.26806 13.8216 5.29558 13.872 5.33806C13.9225 5.38053 13.96 5.43626 13.9804 5.49895C14.0008 5.56164 14.0032 5.62879 13.9874 5.69279C13.9716 5.75679 13.9382 5.8151 13.891 5.86112L11.401 8.28585C11.2368 8.44587 11.1139 8.64341 11.043 8.86145C10.972 9.0795 10.9552 9.31151 10.9938 9.53753L11.5816 12.9633C11.5931 13.0285 11.5861 13.0957 11.5613 13.1571C11.5365 13.2185 11.4949 13.2717 11.4414 13.3106C11.3878 13.3495 11.3243 13.3726 11.2583 13.3772C11.1922 13.3818 11.1262 13.3677 11.0678 13.3366L7.98986 11.7183C7.78705 11.6118 7.56142 11.5562 7.33236 11.5562C7.1033 11.5562 6.87766 11.6118 6.67486 11.7183L3.59763 13.3366C3.5392 13.3675 3.47326 13.3814 3.40731 13.3767C3.34137 13.372 3.27806 13.3489 3.22459 13.3101C3.17112 13.2712 3.12964 13.2181 3.10486 13.1568C3.08008 13.0955 3.073 13.0285 3.08443 12.9633L3.67161 9.5382C3.7104 9.31208 3.6936 9.07991 3.62265 8.86173C3.5517 8.64355 3.42875 8.44591 3.26438 8.28585L0.774343 5.86179C0.726751 5.81582 0.693026 5.75741 0.677009 5.69322C0.660993 5.62902 0.663329 5.56161 0.683752 5.49868C0.704175 5.43574 0.741863 5.37981 0.792523 5.33725C0.843184 5.29468 0.904779 5.26721 0.970294 5.25794L4.41276 4.75474C4.63954 4.72174 4.85491 4.63414 5.04032 4.49946C5.22574 4.36478 5.37565 4.18706 5.47716 3.9816L7.0161 0.86305Z" stroke="#D1D5DC" stroke-width="1.333" stroke-linecap="round" stroke-linejoin="round"/>
</svg>
