<svg width="20" height="20" viewBox="0 0 20 20" fill="none" xmlns="http://www.w3.org/2000/svg">
<path d="M16.66 4.99805H3.33201C2.41191 4.99805 1.66602 5.74394 1.66602 6.66405V13.328C1.66602 14.2481 2.41191 14.994 3.33201 14.994H16.66C17.5801 14.994 18.326 14.2481 18.326 13.328V6.66405C18.326 5.74394 17.5801 4.99805 16.66 4.99805Z" stroke="#E17100" stroke-width="1.666" stroke-linecap="round" stroke-linejoin="round"/>
<path d="M9.99596 11.662C10.9161 11.662 11.662 10.9161 11.662 9.99596C11.662 9.07585 10.9161 8.32996 9.99596 8.32996C9.07585 8.32996 8.32996 9.07585 8.32996 9.99596C8.32996 10.9161 9.07585 11.662 9.99596 11.662Z" stroke="#E17100" stroke-width="1.666" stroke-linecap="round" stroke-linejoin="round"/>
<path d="M4.99805 9.99597H5.00638M14.994 9.99597H15.0024" stroke="#E17100" stroke-width="1.666" stroke-linecap="round" stroke-linejoin="round"/>
</svg>
