<svg width="20" height="20" viewBox="0 0 20 20" fill="none" xmlns="http://www.w3.org/2000/svg">
<g clip-path="url(#clip0_238_5224)">
<path d="M15.827 5.83102V3.33202C15.827 3.1111 15.7393 2.89922 15.583 2.743C15.4268 2.58679 15.2149 2.49902 14.994 2.49902H4.16502C3.72317 2.49902 3.29942 2.67455 2.98698 2.98698C2.67455 3.29942 2.49902 3.72317 2.49902 4.16502C2.49902 4.60687 2.67455 5.03063 2.98698 5.34306C3.29942 5.6555 3.72317 5.83102 4.16502 5.83102H16.66C16.8809 5.83102 17.0928 5.91878 17.249 6.075C17.4053 6.23122 17.493 6.4431 17.493 6.66402V9.99602M17.493 9.99602H14.994C14.5522 9.99602 14.1284 10.1715 13.816 10.484C13.5035 10.7964 13.328 11.2202 13.328 11.662C13.328 12.1039 13.5035 12.5276 13.816 12.8401C14.1284 13.1525 14.5522 13.328 14.994 13.328H17.493C17.7139 13.328 17.9258 13.2403 18.082 13.084C18.2383 12.9278 18.326 12.7159 18.326 12.495V10.829C18.326 10.6081 18.2383 10.3962 18.082 10.24C17.9258 10.0838 17.7139 9.99602 17.493 9.99602Z" stroke="#00A63E" stroke-width="1.666" stroke-linecap="round" stroke-linejoin="round"/>
<path d="M2.49902 4.16504V15.827C2.49902 16.2689 2.67455 16.6926 2.98698 17.0051C3.29942 17.3175 3.72317 17.493 4.16502 17.493H16.66C16.8809 17.493 17.0928 17.4053 17.249 17.2491C17.4053 17.0928 17.493 16.881 17.493 16.66V13.328" stroke="#00A63E" stroke-width="1.666" stroke-linecap="round" stroke-linejoin="round"/>
</g>
<defs>
<clipPath id="clip0_238_5224">
<rect width="19.992" height="19.992" fill="white"/>
</clipPath>
</defs>
</svg>
