<svg width="20" height="20" viewBox="0 0 20 20" fill="none" xmlns="http://www.w3.org/2000/svg">
<path d="M2.49902 9.99602C2.49902 11.4788 2.93871 12.9283 3.7625 14.1611C4.58628 15.394 5.75715 16.3549 7.12704 16.9223C8.49694 17.4898 10.0043 17.6382 11.4586 17.349C12.9129 17.0597 14.2487 16.3457 15.2972 15.2972C16.3457 14.2487 17.0597 12.9129 17.349 11.4586C17.6382 10.0043 17.4898 8.49694 16.9223 7.12704C16.3549 5.75715 15.394 4.58628 14.1611 3.7625C12.9283 2.93871 11.4788 2.49902 9.99602 2.49902C7.90015 2.50691 5.88847 3.32471 4.3816 4.78144L2.49902 6.66402" stroke="#6A7282" stroke-width="1.666" stroke-linecap="round" stroke-linejoin="round"/>
<path d="M2.49902 2.49902V6.66402H6.66402" stroke="#6A7282" stroke-width="1.666" stroke-linecap="round" stroke-linejoin="round"/>
<path d="M9.99597 5.83105V9.99605L13.328 11.6621" stroke="#6A7282" stroke-width="1.666" stroke-linecap="round" stroke-linejoin="round"/>
</svg>
