<svg width="24" height="24" viewBox="0 0 24 24" fill="none" xmlns="http://www.w3.org/2000/svg">
<path d="M15 21V13C15 12.7348 14.8946 12.4804 14.7071 12.2929C14.5196 12.1054 14.2652 12 14 12H10C9.73478 12 9.48043 12.1054 9.29289 12.2929C9.10536 12.4804 9 12.7348 9 13V21" fill="#FDC700" fill-opacity="0.1"/>
<path d="M15 21V13C15 12.7348 14.8946 12.4804 14.7071 12.2929C14.5196 12.1054 14.2652 12 14 12H10C9.73478 12 9.48043 12.1054 9.29289 12.2929C9.10536 12.4804 9 12.7348 9 13V21" stroke="#FDC700" stroke-width="1.99999" stroke-linecap="round" stroke-linejoin="round"/>
<path d="M3.24017 10.1661C3.2401 9.85984 3.30351 9.55726 3.42596 9.27946C3.54842 9.00165 3.72697 8.75532 3.94917 8.55763L10.9492 2.24272C11.3102 1.92156 11.7675 1.74536 12.2402 1.74536C12.7128 1.74536 13.1702 1.92156 13.5312 2.24272L20.5312 8.55763C20.7534 8.75532 20.9319 9.00165 21.0544 9.27946C21.1768 9.55726 21.2402 9.85984 21.2402 10.1661V19.64C21.2402 20.1984 21.0295 20.7339 20.6544 21.1287C20.2793 21.5236 19.7706 21.7454 19.2402 21.7454H5.24017C4.70974 21.7454 4.20103 21.5236 3.82596 21.1287C3.45089 20.7339 3.24017 20.1984 3.24017 19.64V10.1661Z" fill="#FDC700" fill-opacity="0.15" stroke="#FDC700" stroke-width="1.99999" stroke-linecap="round" stroke-linejoin="round"/>
</svg>
