<svg width="24" height="24" viewBox="0 0 24 24" fill="none" xmlns="http://www.w3.org/2000/svg">
<path d="M15.9957 19.9943V3.99893C15.9957 3.46865 15.7851 2.96009 15.4101 2.58513C15.0352 2.21016 14.5266 1.99951 13.9963 1.99951H9.99747C9.46719 1.99951 8.95863 2.21016 8.58366 2.58513C8.2087 2.96009 7.99805 3.46865 7.99805 3.99893V19.9943" stroke="#4A5565" stroke-width="1.99942" stroke-linecap="round" stroke-linejoin="round"/>
<path d="M19.9948 5.99829H3.99942C2.89517 5.99829 2 6.89346 2 7.99771V17.9948C2 19.0991 2.89517 19.9942 3.99942 19.9942H19.9948C21.099 19.9942 21.9942 19.0991 21.9942 17.9948V7.99771C21.9942 6.89346 21.099 5.99829 19.9948 5.99829Z" stroke="#4A5565" stroke-width="1.99942" stroke-linecap="round" stroke-linejoin="round"/>
</svg>
