<svg width="24" height="24" viewBox="0 0 24 24" fill="none" xmlns="http://www.w3.org/2000/svg">
<path d="M19.9934 9.9972C19.9934 14.9888 14.456 20.1873 12.5966 21.7928C12.4233 21.923 12.2125 21.9935 11.9957 21.9935C11.779 21.9935 11.5681 21.923 11.3949 21.7928C9.53545 20.1873 3.99805 14.9888 3.99805 9.9972C3.99805 7.87608 4.84066 5.84184 6.34052 4.34198C7.84037 2.84212 9.87461 1.99951 11.9957 1.99951C14.1169 1.99951 16.1511 2.84212 17.651 4.34198C19.1508 5.84184 19.9934 7.87608 19.9934 9.9972Z" stroke="#6938D3" stroke-width="1.99942" stroke-linecap="round" stroke-linejoin="round"/>
<path d="M11.9972 12.9963C13.6536 12.9963 14.9963 11.6536 14.9963 9.99718C14.9963 8.3408 13.6536 6.99805 11.9972 6.99805C10.3408 6.99805 8.99805 8.3408 8.99805 9.99718C8.99805 11.6536 10.3408 12.9963 11.9972 12.9963Z" stroke="#6938D3" stroke-width="1.99942" stroke-linecap="round" stroke-linejoin="round"/>
</svg>
