<svg width="24" height="24" viewBox="0 0 24 24" fill="none" xmlns="http://www.w3.org/2000/svg">
<path d="M14.9963 20.994V12.9963C14.9963 12.7312 14.891 12.4769 14.7035 12.2894C14.516 12.1019 14.2617 11.9966 13.9966 11.9966H9.99776C9.73262 11.9966 9.47834 12.1019 9.29086 12.2894C9.10337 12.4769 8.99805 12.7312 8.99805 12.9963V20.994" stroke="#4A5565" stroke-width="1.99942" stroke-linecap="round" stroke-linejoin="round"/>
<path d="M3 9.99717C2.99993 9.70632 3.06332 9.41896 3.18573 9.15513C3.30815 8.8913 3.48666 8.65735 3.7088 8.46961L10.7068 2.47234C11.0677 2.16734 11.5249 2 11.9974 2C12.4699 2 12.9271 2.16734 13.288 2.47234L20.286 8.46961C20.5081 8.65735 20.6866 8.8913 20.8091 9.15513C20.9315 9.41896 20.9949 9.70632 20.9948 9.99717V18.9946C20.9948 19.5248 20.7841 20.0334 20.4092 20.4084C20.0342 20.7833 19.5257 20.994 18.9954 20.994H4.99942C4.46914 20.994 3.96058 20.7833 3.58562 20.4084C3.21065 20.0334 3 19.5248 3 18.9946V9.99717Z" stroke="#4A5565" stroke-width="1.99942" stroke-linecap="round" stroke-linejoin="round"/>
</svg>
