<svg width="24" height="24" viewBox="0 0 24 24" fill="none" xmlns="http://www.w3.org/2000/svg">
<path d="M17.9946 7.99778C17.9946 11.6097 14.1267 15.4246 12.6031 16.7902C12.4288 16.9234 12.2156 16.9955 11.9963 16.9955C11.777 16.9955 11.5638 16.9234 11.3895 16.7902C9.86693 15.4246 5.99805 11.6097 5.99805 7.99778C5.99805 6.40694 6.63001 4.88126 7.7549 3.75636C8.87979 2.63147 10.4055 1.99951 11.9963 1.99951C13.5872 1.99951 15.1128 2.63147 16.2377 3.75636C17.3626 4.88126 17.9946 6.40694 17.9946 7.99778Z" stroke="#4A5565" stroke-width="1.99942" stroke-linecap="round" stroke-linejoin="round"/>
<path d="M11.9975 9.99713C13.1017 9.99713 13.9969 9.10196 13.9969 7.99771C13.9969 6.89346 13.1017 5.99829 11.9975 5.99829C10.8932 5.99829 9.99805 6.89346 9.99805 7.99771C9.99805 9.10196 10.8932 9.99713 11.9975 9.99713Z" stroke="#4A5565" stroke-width="1.99942" stroke-linecap="round" stroke-linejoin="round"/>
<path d="M8.71163 13.9958H5.00271C4.7931 13.9959 4.58882 14.0619 4.41875 14.1844C4.24868 14.307 4.12143 14.4799 4.05498 14.6787L2.05156 20.6769C2.00133 20.8272 1.98754 20.9872 2.01133 21.1439C2.03511 21.3005 2.09578 21.4493 2.18834 21.5779C2.2809 21.7065 2.4027 21.8112 2.5437 21.8835C2.68469 21.9557 2.84085 21.9935 2.99929 21.9935H20.9941C21.1524 21.9934 21.3084 21.9557 21.4493 21.8835C21.5902 21.8113 21.7119 21.7066 21.8045 21.5782C21.897 21.4497 21.9577 21.3011 21.9816 21.1446C22.0055 20.9881 21.9918 20.8281 21.9418 20.6779L19.9424 14.6797C19.8761 14.4805 19.7487 14.3073 19.5784 14.1846C19.4082 14.0618 19.2036 13.9958 18.9937 13.9958H15.2827" stroke="#4A5565" stroke-width="1.99942" stroke-linecap="round" stroke-linejoin="round"/>
</svg>
