<svg width="18" height="18" viewBox="0 0 18 18" fill="none" xmlns="http://www.w3.org/2000/svg">
<g clip-path="url(#clip0_50_8738)">
<path d="M11.7305 11.7303L13.1968 13.1966L16.1294 10.264" stroke="white" stroke-width="1.4663" stroke-linecap="round" stroke-linejoin="round"/>
<path d="M15.3959 7.33146V5.86516C15.3956 5.60803 15.3278 5.35548 15.1991 5.13287C15.0704 4.91025 14.8854 4.72538 14.6627 4.59681L9.53071 1.66422C9.3078 1.53553 9.05495 1.46777 8.79756 1.46777C8.54017 1.46777 8.28731 1.53553 8.06441 1.66422L2.93237 4.59681C2.70968 4.72538 2.52472 4.91025 2.39604 5.13287C2.26736 5.35548 2.19948 5.60803 2.19922 5.86516V11.7304C2.19948 11.9875 2.26736 12.24 2.39604 12.4626C2.52472 12.6853 2.70968 12.8701 2.93237 12.9987L8.06441 15.9313C8.28731 16.06 8.54017 16.1277 8.79756 16.1277C9.05495 16.1277 9.3078 16.06 9.53071 15.9313L10.997 15.0955" stroke="white" stroke-width="1.4663" stroke-linecap="round" stroke-linejoin="round"/>
<path d="M5.49854 3.13062L12.0969 6.90633" stroke="white" stroke-width="1.4663" stroke-linecap="round" stroke-linejoin="round"/>
<path d="M2.41211 5.13208L8.79783 8.79782L15.1836 5.13208" stroke="white" stroke-width="1.4663" stroke-linecap="round" stroke-linejoin="round"/>
<path d="M8.79785 16.1292V8.79773" stroke="white" stroke-width="1.4663" stroke-linecap="round" stroke-linejoin="round"/>
</g>
<defs>
<clipPath id="clip0_50_8738">
<rect width="17.5956" height="17.5956" fill="white"/>
</clipPath>
</defs>
</svg>
