<svg width="18" height="18" viewBox="0 0 18 18" fill="none" xmlns="http://www.w3.org/2000/svg">
<path d="M13.5631 15.3961C14.9803 15.3961 16.1291 14.2472 16.1291 12.8301C16.1291 11.4129 14.9803 10.264 13.5631 10.264C12.1459 10.264 10.9971 11.4129 10.9971 12.8301C10.9971 14.2472 12.1459 15.3961 13.5631 15.3961Z" stroke="white" stroke-width="1.4663" stroke-linecap="round" stroke-linejoin="round"/>
<path d="M4.03233 15.3961C5.4495 15.3961 6.59835 14.2472 6.59835 12.8301C6.59835 11.4129 5.4495 10.264 4.03233 10.264C2.61515 10.264 1.46631 11.4129 1.46631 12.8301C1.46631 14.2472 2.61515 15.3961 4.03233 15.3961Z" stroke="white" stroke-width="1.4663" stroke-linecap="round" stroke-linejoin="round"/>
<path d="M10.9973 4.39891C11.4022 4.39891 11.7305 4.07067 11.7305 3.66577C11.7305 3.26086 11.4022 2.93262 10.9973 2.93262C10.5924 2.93262 10.2642 3.26086 10.2642 3.66577C10.2642 4.07067 10.5924 4.39891 10.9973 4.39891Z" stroke="white" stroke-width="1.4663" stroke-linecap="round" stroke-linejoin="round"/>
<path d="M8.79759 12.8301V10.2641L6.59814 8.06468L9.53074 5.86523L10.997 8.06468H12.4633" stroke="white" stroke-width="1.4663" stroke-linecap="round" stroke-linejoin="round"/>
</svg>
