<svg width="18" height="18" viewBox="0 0 18 18" fill="none" xmlns="http://www.w3.org/2000/svg">
<path d="M12.4634 15.3962C12.6578 15.3962 12.8443 15.3189 12.9818 15.1814C13.1193 15.044 13.1965 14.8575 13.1965 14.663V10.7407C13.1965 10.4056 13.4282 10.1219 13.7295 9.97748C14.3534 9.67986 14.8521 9.17142 15.1376 8.54189C15.4231 7.91237 15.4771 7.20222 15.29 6.53678C15.1029 5.87135 14.6867 5.2934 14.1149 4.90493C13.5432 4.51647 12.8526 4.34246 12.165 4.41362C11.8818 3.7554 11.4119 3.19461 10.8135 2.80057C10.215 2.40653 9.51417 2.19653 8.79763 2.19653C8.08109 2.19653 7.38026 2.40653 6.78178 2.80057C6.18331 3.19461 5.71345 3.7554 5.43028 4.41362C4.74301 4.34296 4.05286 4.51721 3.48152 4.90566C2.91017 5.29411 2.49432 5.8718 2.30727 6.53689C2.12023 7.20198 2.17401 7.91175 2.45912 8.54106C2.74424 9.17037 3.24239 9.67882 3.86574 9.97675C4.16706 10.1219 4.39874 10.4056 4.39874 10.74V14.663C4.39874 14.8575 4.47598 15.044 4.61347 15.1814C4.75096 15.3189 4.93744 15.3962 5.13189 15.3962H12.4634Z" stroke="white" stroke-width="1.4663" stroke-linecap="round" stroke-linejoin="round"/>
<path d="M4.39893 12.4635H13.1967" stroke="white" stroke-width="1.4663" stroke-linecap="round" stroke-linejoin="round"/>
</svg>
