<svg width="12" height="12" viewBox="0 0 12 12" fill="none" xmlns="http://www.w3.org/2000/svg">
<path d="M1.5 5.99998C1.5 6.88999 1.76392 7.76002 2.25838 8.50004C2.75285 9.24006 3.45565 9.81683 4.27791 10.1574C5.10018 10.498 6.00497 10.5871 6.87788 10.4135C7.7508 10.2399 8.55262 9.81128 9.18195 9.18195C9.81128 8.55262 10.2399 7.7508 10.4135 6.87788C10.5871 6.00497 10.498 5.10018 10.1574 4.27791C9.81683 3.45565 9.24006 2.75285 8.50004 2.25838C7.76002 1.76392 6.88999 1.5 5.99998 1.5C4.74196 1.50473 3.53448 1.99561 2.63 2.86999L1.5 3.99999" stroke="#7F22FE" stroke-width="0.999996" stroke-linecap="round" stroke-linejoin="round"/>
<path d="M1.5 1.5V3.99999H3.99999" stroke="#7F22FE" stroke-width="0.999996" stroke-linecap="round" stroke-linejoin="round"/>
</svg>
