<svg width="16" height="16" viewBox="0 0 16 16" fill="none" xmlns="http://www.w3.org/2000/svg">
<path d="M1.99951 7.3315H3.99901C4.35254 7.3315 4.69159 7.47194 4.94158 7.72192C5.19157 7.97191 5.33201 8.31096 5.33201 8.66449V10.664C5.33201 11.0175 5.19157 11.3566 4.94158 11.6066C4.69159 11.8565 4.35254 11.997 3.99901 11.997H3.33251C2.97898 11.997 2.63992 11.8565 2.38994 11.6066C2.13995 11.3566 1.99951 11.0175 1.99951 10.664V7.3315ZM1.99951 7.3315C1.99951 6.54376 2.15467 5.76374 2.45612 5.03597C2.75757 4.3082 3.19942 3.64694 3.75643 3.08992C4.31344 2.53291 4.97471 2.09107 5.70248 1.78962C6.43025 1.48816 7.21027 1.33301 7.998 1.33301C8.78573 1.33301 9.56575 1.48816 10.2935 1.78962C11.0213 2.09107 11.6826 2.53291 12.2396 3.08992C12.7966 3.64694 13.2384 4.3082 13.5399 5.03597C13.8413 5.76374 13.9965 6.54376 13.9965 7.3315M13.9965 7.3315V10.664C13.9965 11.0175 13.856 11.3566 13.6061 11.6066C13.3561 11.8565 13.017 11.997 12.6635 11.997H11.997C11.6435 11.997 11.3044 11.8565 11.0544 11.6066C10.8044 11.3566 10.664 11.0175 10.664 10.664V8.66449C10.664 8.31096 10.8044 7.97191 11.0544 7.72192C11.3044 7.47194 11.6435 7.3315 11.997 7.3315H13.9965Z" stroke="#101828" stroke-width="1.333" stroke-linecap="round" stroke-linejoin="round"/>
<path d="M13.9965 10.6641V11.9971C13.9965 12.7041 13.7157 13.3822 13.2157 13.8822C12.7157 14.3822 12.0376 14.6631 11.3305 14.6631H7.99805" stroke="#101828" stroke-width="1.333" stroke-linecap="round" stroke-linejoin="round"/>
</svg>
