<svg width="16" height="16" viewBox="0 0 16 16" fill="none" xmlns="http://www.w3.org/2000/svg">
<path d="M13.33 6.665C13.33 9.99283 9.63826 13.4586 8.39857 14.529C8.28308 14.6159 8.1425 14.6628 7.99801 14.6628C7.85351 14.6628 7.71293 14.6159 7.59744 14.529C6.35775 13.4586 2.66602 9.99283 2.66602 6.665C2.66602 5.25087 3.22778 3.89465 4.22772 2.89471C5.22766 1.89477 6.58387 1.33301 7.99801 1.33301C9.41214 1.33301 10.7684 1.89477 11.7683 2.89471C12.7682 3.89465 13.33 5.25087 13.33 6.665Z" stroke="white" stroke-width="1.333" stroke-linecap="round" stroke-linejoin="round"/>
<path d="M7.99803 8.66452C9.10232 8.66452 9.99753 7.76932 9.99753 6.66502C9.99753 5.56073 9.10232 4.66553 7.99803 4.66553C6.89374 4.66553 5.99854 5.56073 5.99854 6.66502C5.99854 7.76932 6.89374 8.66452 7.99803 8.66452Z" stroke="white" stroke-width="1.333" stroke-linecap="round" stroke-linejoin="round"/>
</svg>
