<svg width="12" height="12" viewBox="0 0 12 12" fill="none" xmlns="http://www.w3.org/2000/svg">
<g clip-path="url(#clip0_28_445)">
<path d="M9.24999 10.5C10.2165 10.5 11 9.71649 11 8.74999C11 7.7835 10.2165 7 9.24999 7C8.2835 7 7.5 7.7835 7.5 8.74999C7.5 9.71649 8.2835 10.5 9.24999 10.5Z" stroke="#00A63E" stroke-width="0.999996" stroke-linecap="round" stroke-linejoin="round"/>
<path d="M2.74999 10.5C3.71649 10.5 4.49999 9.71649 4.49999 8.74999C4.49999 7.7835 3.71649 7 2.74999 7C1.7835 7 1 7.7835 1 8.74999C1 9.71649 1.7835 10.5 2.74999 10.5Z" stroke="#00A63E" stroke-width="0.999996" stroke-linecap="round" stroke-linejoin="round"/>
<path d="M7.5 3C7.77614 3 8 2.77614 8 2.5C8 2.22386 7.77614 2 7.5 2C7.22386 2 7 2.22386 7 2.5C7 2.77614 7.22386 3 7.5 3Z" stroke="#00A63E" stroke-width="0.999996" stroke-linecap="round" stroke-linejoin="round"/>
<path d="M5.99999 8.74998V6.99999L4.5 5.49999L6.49999 4L7.49999 5.49999H8.49998" stroke="#00A63E" stroke-width="0.999996" stroke-linecap="round" stroke-linejoin="round"/>
</g>
<defs>
<clipPath id="clip0_28_445">
<rect width="12" height="12" fill="white"/>
</clipPath>
</defs>
</svg>
