<svg width="20" height="20" viewBox="0 0 20 20" fill="none" xmlns="http://www.w3.org/2000/svg">
<g clip-path="url(#clip0_28_1273)">
<path d="M7.08054 12.0785C7.63285 12.0785 8.16254 11.8591 8.55309 11.4686C8.94363 11.078 9.16304 10.5483 9.16304 9.99602C9.16304 8.84648 8.74654 8.33002 8.33004 7.49702C7.43706 5.7119 8.14345 4.12004 9.99604 2.49902C10.4125 4.58152 11.662 6.58072 13.328 7.91352C14.994 9.24632 15.827 10.829 15.827 12.495C15.827 13.2608 15.6762 14.019 15.3832 14.7264C15.0901 15.4339 14.6606 16.0767 14.1192 16.6182C13.5777 17.1596 12.9349 17.5891 12.2275 17.8822C11.52 18.1752 10.7618 18.326 9.99604 18.326C9.2303 18.326 8.47206 18.1752 7.76461 17.8822C7.05716 17.5891 6.41436 17.1596 5.8729 16.6182C5.33144 16.0767 4.90193 15.4339 4.6089 14.7264C4.31586 14.019 4.16504 13.2608 4.16504 12.495C4.16504 11.5346 4.52573 10.5841 4.99804 9.99602C4.99804 10.5483 5.21744 11.078 5.60799 11.4686C5.99853 11.8591 6.52822 12.0785 7.08054 12.0785Z" fill="#FF6900" stroke="#FF6900" stroke-width="1.666" stroke-linecap="round" stroke-linejoin="round"/>
</g>
<defs>
<clipPath id="clip0_28_1273">
<rect width="19.992" height="19.992" fill="white"/>
</clipPath>
</defs>
</svg>
