<svg width="10" height="10" viewBox="0 0 10 10" fill="none" xmlns="http://www.w3.org/2000/svg">
<path d="M7.00928 3.79076C7.00928 5.53833 5.27834 7.35835 4.69709 7.92046C4.64294 7.96606 4.57703 7.99072 4.50928 7.99072C4.44153 7.99072 4.37561 7.96606 4.32146 7.92046C3.74021 7.35835 2.00928 5.53833 2.00928 3.79076C2.00928 3.04814 2.27267 2.33594 2.74151 1.81083C3.21035 1.28573 3.84624 0.990723 4.50928 0.990723C5.17232 0.990723 5.8082 1.28573 6.27704 1.81083C6.74589 2.33594 7.00928 3.04814 7.00928 3.79076Z" stroke="white" stroke-width="0.5" stroke-linecap="round" stroke-linejoin="round"/>
<path d="M4.50928 4.99072C5.3377 4.99072 6.00928 4.31915 6.00928 3.49072C6.00928 2.6623 5.3377 1.99072 4.50928 1.99072C3.68085 1.99072 3.00928 2.6623 3.00928 3.49072C3.00928 4.31915 3.68085 4.99072 4.50928 4.99072Z" stroke="white" stroke-width="0.5" stroke-linecap="round" stroke-linejoin="round"/>
</svg>
