<svg width="40" height="40" viewBox="0 0 40 40" fill="none" xmlns="http://www.w3.org/2000/svg">
<path d="M0 18C0 8.05889 8.05887 0 18 0H21.9959C31.937 0 39.9959 8.05887 39.9959 18V21.9959C39.9959 31.937 31.937 39.9959 21.9959 39.9959H18C8.05889 39.9959 0 31.937 0 21.9959V18Z" fill="#E8E3FF"/>
<path d="M19.165 25.829C22.8454 25.829 25.829 22.8454 25.829 19.165C25.829 15.4845 22.8454 12.501 19.165 12.501C15.4845 12.501 12.501 15.4845 12.501 19.165C12.501 22.8454 15.4845 25.829 19.165 25.829Z" stroke="#7F22FE" stroke-width="1.666" stroke-linecap="round" stroke-linejoin="round"/>
<path d="M27.495 27.495L23.9131 23.9131" stroke="#7F22FE" stroke-width="1.666" stroke-linecap="round" stroke-linejoin="round"/>
</svg>
