<svg width="12" height="12" viewBox="0 0 12 12" fill="none" xmlns="http://www.w3.org/2000/svg">
<g clip-path="url(#clip0_28_439)">
<path d="M5.76253 1.14745C5.78444 1.10318 5.81829 1.06591 5.86025 1.03986C5.90222 1.01381 5.95063 1 6.00002 1C6.04942 1 6.09783 1.01381 6.1398 1.03986C6.18176 1.06591 6.21561 1.10318 6.23752 1.14745L7.39252 3.48694C7.46861 3.64092 7.58092 3.77414 7.71983 3.87516C7.85874 3.97618 8.02008 4.04199 8.19002 4.06693L10.773 4.44493C10.8219 4.45202 10.8679 4.47267 10.9057 4.50453C10.9436 4.5364 10.9717 4.57821 10.987 4.62524C11.0023 4.67226 11.0041 4.72263 10.9923 4.77065C10.9805 4.81866 10.9554 4.86241 10.92 4.89693L9.05201 6.71592C8.92882 6.83597 8.83665 6.98416 8.78343 7.14774C8.73021 7.31131 8.71754 7.48536 8.74651 7.65492L9.18751 10.2249C9.19615 10.2738 9.19087 10.3242 9.17226 10.3703C9.15366 10.4163 9.12248 10.4562 9.08228 10.4854C9.04209 10.5146 8.9945 10.5319 8.94495 10.5354C8.89539 10.5388 8.84586 10.5283 8.80201 10.5049L6.49302 9.29091C6.34088 9.21103 6.17161 9.16929 5.99977 9.16929C5.82794 9.16929 5.65867 9.21103 5.50653 9.29091L3.19804 10.5049C3.1542 10.5281 3.10474 10.5386 3.05526 10.535C3.00579 10.5315 2.9583 10.5142 2.91818 10.485C2.87807 10.4558 2.84695 10.416 2.82837 10.37C2.80978 10.324 2.80447 10.2738 2.81304 10.2249L3.25354 7.65542C3.28263 7.48579 3.27003 7.31162 3.21681 7.14794C3.16358 6.98427 3.07134 6.836 2.94804 6.71592L1.08005 4.89743C1.04434 4.86295 1.01904 4.81913 1.00703 4.77097C0.995011 4.72281 0.996764 4.67224 1.01208 4.62503C1.02741 4.57781 1.05568 4.53585 1.09368 4.50392C1.13169 4.472 1.1779 4.45138 1.22704 4.44443L3.80953 4.06693C3.97966 4.04218 4.14123 3.97646 4.28032 3.87543C4.41942 3.77439 4.53188 3.64107 4.60803 3.48694L5.76253 1.14745Z" fill="#FF6900" stroke="#FF6900" stroke-width="0.999996" stroke-linecap="round" stroke-linejoin="round"/>
</g>
<defs>
<clipPath id="clip0_28_439">
<rect width="12" height="12" fill="white"/>
</clipPath>
</defs>
</svg>
