<svg width="28" height="28" viewBox="0 0 28 28" fill="none" xmlns="http://www.w3.org/2000/svg">
<path d="M5.83252 4.666C5.83252 3.37752 6.87704 2.33301 8.16551 2.33301H19.8305C21.119 2.33301 22.1635 3.37752 22.1635 4.666V26.2462C22.1635 26.6545 21.6969 26.8878 21.3469 26.5961L19.8305 25.4296L18.314 26.5961C18.1041 26.7478 17.8241 26.7478 17.6141 26.5961L16.0977 25.4296L14.5812 26.5961C14.3713 26.7478 14.0913 26.7478 13.8813 26.5961L12.3649 25.4296L10.8485 26.5961C10.6385 26.7478 10.3585 26.7478 10.1486 26.5961L8.63211 25.4296L7.11567 26.5961C6.76572 26.8878 6.29912 26.6545 6.29912 26.2462V4.666H5.83252Z" fill="#F3E8FF"/>
<path d="M5.83252 3.4995C5.83252 2.21102 6.87704 1.1665 8.16551 1.1665H19.8305C21.119 1.1665 22.1635 2.21102 22.1635 3.4995V25.0797C22.1635 25.488 21.6969 25.7213 21.3469 25.4296L19.8305 24.2631L18.314 25.4296C18.1041 25.5813 17.8241 25.5813 17.6141 25.4296L16.0977 24.2631L14.5812 25.4296C14.3713 25.5813 14.0913 25.5813 13.8813 25.4296L12.3649 24.2631L10.8485 25.4296C10.6385 25.5813 10.3585 25.5813 10.1486 25.4296L8.63211 24.2631L7.11567 25.4296C6.76572 25.7213 6.29912 25.488 6.29912 25.0797V3.4995H5.83252Z" fill="white" stroke="#E5E7EB" stroke-width="1.74975"/>
<path d="M17.4975 5.83252H10.4985C9.85429 5.83252 9.33203 6.35478 9.33203 6.99902C9.33203 7.64325 9.85429 8.16551 10.4985 8.16551H17.4975C18.1417 8.16551 18.664 7.64325 18.664 6.99902C18.664 6.35478 18.1417 5.83252 17.4975 5.83252Z" fill="#7F22FE"/>
<path d="M17.7891 10.4985H10.2069C9.72373 10.4985 9.33203 10.8902 9.33203 11.3734C9.33203 11.8566 9.72373 12.2483 10.2069 12.2483H17.7891C18.2723 12.2483 18.664 11.8566 18.664 11.3734C18.664 10.8902 18.2723 10.4985 17.7891 10.4985Z" fill="#E5E7EB"/>
<path d="M14.2904 13.998H10.207C9.72378 13.998 9.33203 14.3898 9.33203 14.873C9.33203 15.3563 9.72378 15.748 10.207 15.748H14.2904C14.7736 15.748 15.1654 15.3563 15.1654 14.873C15.1654 14.3898 14.7736 13.998 14.2904 13.998Z" fill="#E5E7EB"/>
<path d="M12.832 18.6641H10.4987C9.85437 18.6641 9.33203 19.1864 9.33203 19.8307C9.33203 20.4751 9.85437 20.9974 10.4987 20.9974H12.832C13.4764 20.9974 13.9987 20.4751 13.9987 19.8307C13.9987 19.1864 13.4764 18.6641 12.832 18.6641Z" fill="#E5E7EB"/>
</svg>
